<?xml version="1.0" encoding="UTF-8"?>
<svg id="Layer_1" xmlns="http://www.w3.org/2000/svg" version="1.1" viewBox="0 0 1412.32 329.48">
  <!-- Generator: Adobe Illustrator 29.5.1, SVG Export Plug-In . SVG Version: 2.1.0 Build 141)  -->
  <path d="M392.77,160.67c4.58-14.36,11.09-26.61,19.43-36.85,8.39-10.19,18.31-18.31,29.76-24.24,11.45-5.97,23.61-8.93,36.4-8.93,18.63,0,34.47,5.57,47.62,16.7,13.11,11.13,23.16,25.58,30.25,43.27h4.58v-57.72h65.48v228.9h-65.48v-57.72h-4.58c-7,17.73-17.1,32.14-30.25,43.27-13.11,11.13-28.99,16.7-47.62,16.7-12.84,0-24.86-2.96-36.18-8.93-11.31-5.97-21.18-14.05-29.76-24.24-8.53-10.19-15.13-22.53-19.7-36.85-4.58-14.36-6.87-29.94-6.87-46.68s2.29-32.36,6.87-46.68h.04ZM457.08,230.96c2.6,7.18,6.28,13.42,11,18.76,4.76,5.34,10.37,9.56,16.97,12.61,6.55,3.05,13.64,4.58,21.27,4.58s15.13-1.53,21.5-4.58c6.42-3.05,11.89-7.18,16.47-12.34,4.58-5.21,8.3-11.4,11.22-18.54,2.92-7.18,4.35-15.17,4.35-24.06s-1.44-16.83-4.35-24.06c-2.92-7.18-6.64-13.33-11.22-18.54-4.58-5.21-10.05-9.29-16.47-12.34s-13.6-4.58-21.5-4.58-14.72,1.53-21.27,4.58-12.21,7.27-16.97,12.61c-4.76,5.34-8.39,11.58-11,18.76-2.6,7.18-3.9,15.04-3.9,23.61s1.3,16.38,3.9,23.61v-.09Z"/>
  <path d="M659.97,0h67.32v321.85h-67.32V0Z"/>
  <path d="M762.97,92.95h64.99v57.72h5.97c5.21-17.41,14.54-31.6,28.14-42.59,13.6-11,32.58-16.79,57-17.41v71.9h-20.6c-11.58,0-21.68,1.39-30.21,4.13-8.53,2.74-15.62,6.96-21.27,12.61-5.66,5.66-9.87,12.88-12.61,21.77-2.74,8.84-4.13,19.84-4.13,32.94v87.88h-67.32V92.95h.04Z"/>
  <path d="M944.83,92.95h66.83v119.48c0,17.73,3.41,31.01,10.32,39.81,6.87,8.84,16.83,13.29,29.98,13.29,6.1,0,11.98-1.21,17.64-3.68,5.66-2.42,10.82-6.46,15.57-12.16,4.76-5.66,8.62-13.2,11.67-22.67,3.05-9.43,4.58-21.36,4.58-35.68v-98.43h67.77v228.9h-65.48v-57.22h-5.97c-2.74,8.84-6.42,16.97-11,24.24-4.58,7.32-10.14,13.64-16.7,18.99-6.55,5.34-14.05,9.56-22.44,12.61s-17.32,4.58-26.79,4.58c-11.31,0-21.59-1.84-30.88-5.52-9.29-3.68-17.23-9.56-23.79-17.64-6.55-8.08-11.76-18.4-15.57-30.88-3.81-12.52-5.7-27.47-5.7-44.88V92.9l-.04.04Z"/>
  <path d="M1262.64,245.82c1.21,11,5.57,19.25,13.06,24.73,7.45,5.52,18.85,8.21,34.11,8.21,4.89,0,9.43-.45,13.73-1.39,4.26-.9,7.99-2.2,11.22-3.9,3.23-1.66,5.83-3.9,7.81-6.64s2.96-5.97,2.96-9.6c0-3.99-.85-6.96-2.51-8.93-1.71-1.97-3.9-3.81-6.64-5.52-2.74-1.66-5.7-2.96-8.93-3.9s-6.96-1.84-11.22-2.74l-41.2-6.87c-8.84-1.53-17.73-3.81-26.57-6.87-8.84-3.05-16.79-7.09-23.79-12.16-7-5.07-12.75-11.58-17.14-19.7-4.44-8.08-6.64-17.77-6.64-29.04,0-14.36,2.96-26.39,8.93-36.13,5.97-9.74,13.73-17.55,23.34-23.34,9.6-5.79,20.38-9.92,32.27-12.34,11.89-2.47,23.92-3.68,36.13-3.68,19.25,0,35.41,2.2,48.52,6.64,13.11,4.44,23.88,10.32,32.27,17.64,8.39,7.32,14.72,15.89,18.99,25.63,4.26,9.74,7.18,19.97,8.71,30.7h-68.22c-.9-9.43-4.58-16.83-11-22.22-6.37-5.34-16.2-7.99-29.31-7.99-4.58,0-8.8.31-12.61.9-3.81.63-7.27,1.84-10.32,3.68-3.05,1.84-5.52,4.13-7.32,6.87-1.84,2.74-2.74,5.97-2.74,9.6,0,2.74.67,5.34,2.06,7.76,1.39,2.47,3.23,4.35,5.52,5.7,2.29,1.39,4.94,2.51,8.03,3.41,3.05.9,6.42,1.84,10.05,2.74l43.04,7.76c9.16,1.53,18.22,3.73,27.24,6.64,8.98,2.92,17.14,7,24.51,12.34,7.36,5.34,13.06,11.89,17.14,19.7,4.08,7.81,6.19,17.32,6.19,28.59,0,13.42-2.65,25.04-7.99,34.78-5.34,9.74-12.66,17.77-21.95,24.06-9.29,6.24-20.15,10.91-32.49,13.96s-25.72,4.58-40.08,4.58c-18.94,0-35.32-2.2-49.24-6.64-13.91-4.44-25.49-10.46-34.78-18.09-9.29-7.63-16.47-16.52-21.5-26.79-5.07-10.19-8.17-20.96-9.38-32.27h67.77l-.04.13Z"/>
  <path d="M136.31,263.27l16.07-170.37h77.83l16.07,170.37,9.02,1.75c8.62-20.15,36.89-84.69,42.86-172.08h84.24l-63.19,228.9h-109.69l-15.75-114.45h-4.76l-15.75,114.45H63.42L0,92.95h84.42c5.97,87.43,34.2,151.92,42.86,172.08l9.02-1.75Z"/>
</svg>